<svg xmlns="http://www.w3.org/2000/svg" stroke="#CDE9DF" stroke-width="1.5" stroke-linecap="round" stroke-linejoin="round" viewBox="0 0 48 48" width="50px" height="50px"><path d="M 24 0 C 17.936593 0 13 4.9365932 13 11 L 13 16 L 12 16 C 9.2504839 16 7 18.250484 7 21 L 7 40 C 7 42.749516 9.2504839 45 12 45 L 36 45 C 38.749516 45 41 42.749516 41 40 L 41 21 C 41 19.172781 40.011714 17.56066 38.537109 16.691406 A 1.0001 1.0001 0 1 0 37.521484 18.414062 C 38.40488 18.93481 39 19.891219 39 21 L 39 40 C 39 41.668484 37.668484 43 36 43 L 12 43 C 10.331516 43 9 41.668484 9 40 L 9 21 C 9 19.331516 10.331516 18 12 18 L 13.832031 18 A 1.0001 1.0001 0 0 0 14.716797 17.710938 A 1.0001 1.0001 0 0 0 14.720703 17.707031 A 1.0001 1.0001 0 0 0 14.728516 17.699219 A 1.0001 1.0001 0 0 0 14.736328 17.691406 A 1.0001 1.0001 0 0 0 15 16.841797 L 15 11 C 15 6.0174068 19.017407 2 24 2 C 28.982593 2 33 6.0174068 33 11 L 33 16 L 18 16 A 1.0001 1.0001 0 1 0 18 18 L 33.832031 18 A 1.0001 1.0001 0 0 0 34.716797 17.710938 A 1.0001 1.0001 0 0 0 34.720703 17.707031 A 1.0001 1.0001 0 0 0 34.728516 17.699219 A 1.0001 1.0001 0 0 0 34.736328 17.691406 A 1.0001 1.0001 0 0 0 35 16.841797 L 35 11 C 35 4.9365932 30.063407 0 24 0 z M 24 24 C 21.250484 24 19 26.250484 19 29 C 19 30.58772 19.843001 31.902833 21 32.814453 L 21 35 C 21 36.64497 22.35503 38 24 38 C 25.64497 38 27 36.64497 27 35 L 27 32.814453 C 28.156999 31.902833 29 30.58772 29 29 C 29 26.250484 26.749516 24 24 24 z M 24 26 C 25.668484 26 27 27.331516 27 29 C 27 30.111845 26.39835 31.056224 25.498047 31.580078 A 1.0001 1.0001 0 0 0 25 32.445312 L 25 35 C 25 35.56503 24.56503 36 24 36 C 23.43497 36 23 35.56503 23 35 L 23 32.445312 A 1.0001 1.0001 0 0 0 22.501953 31.580078 C 21.60165 31.056224 21 30.111845 21 29 C 21 27.331516 22.331516 26 24 26 z"/></svg>